<?xml version="1.0" encoding="UTF-8" standalone="no"?>
<!-- Created with Inkscape (http://www.inkscape.org/) -->

<svg
   xmlns:dc="http://purl.org/dc/elements/1.1/"
   xmlns:cc="http://creativecommons.org/ns#"
   xmlns:rdf="http://www.w3.org/1999/02/22-rdf-syntax-ns#"
   xmlns:svg="http://www.w3.org/2000/svg"
   xmlns="http://www.w3.org/2000/svg"
   version="1.1"
   width="234.57919"
   height="55.241329"
   id="svg2985"
   xml:space="preserve"><metadata
     id="metadata2991"><rdf:RDF><cc:Work
         rdf:about=""><dc:format>image/svg+xml</dc:format><dc:type
           rdf:resource="http://purl.org/dc/dcmitype/StillImage" /><dc:title></dc:title></cc:Work></rdf:RDF></metadata><defs
     id="defs2989" /><g
     transform="matrix(1.25,0,0,-1.25,0,55.241328)"
     id="g2993"><g
       id="g2995"><path
         d="m 35.531,9.994 0,7.277 1.371,0 c 2.797,0 4.176,-0.961 4.176,-3.816 0,-2.52 -1.441,-3.461 -4.355,-3.461 l -1.192,0 z m 9.16,-5.856 c -1.546,2.809 -2.343,5.364 -5.574,5.477 3.41,0.445 5.051,2.059 5.051,4.297 0,3.39 -3.18,4.179 -5.793,4.179 l -8.156,0 0,-0.359 0.238,0 c 2.254,0 2.313,-1.621 2.313,-5.914 l 0,-5.051 c 0,-4.363 -0.059,-5.968 -2.313,-5.968 l -0.238,0 0,-0.36 7.867,0 0,0.36 -0.18,0 c -2.312,0 -2.375,1.664 -2.375,6.203 l 0,2.172 c 0.301,0 1.106,0 1.16,-0.004 1.973,-0.036 2.504,-0.454 3.668,-2.524 0.661,-1.199 1.438,-3.594 3.196,-6.211 l 4.453,-0.008 0,0.375 c -1.246,0.047 -2.102,1.18 -3.317,3.336 z"
         id="path2997"
         style="fill:#ffffff;fill-opacity:1;fill-rule:nonzero;stroke:none" /><path
         d="m 90.938,35.716 0,7.29 1.378,0 c 2.809,0 4.176,-0.965 4.176,-3.836 0,-2.493 -1.426,-3.454 -4.355,-3.454 l -1.199,0 z m 9.179,-5.867 c -1.543,2.797 -2.344,5.371 -5.574,5.485 3.41,0.449 5.066,2.082 5.066,4.312 0,3.387 -3.207,4.18 -5.82,4.18 l -8.16,0 0,-0.363 0.242,0 c 2.266,0 2.32,-1.622 2.32,-5.907 l 0,-5.093 c 0,-4.344 -0.054,-5.965 -2.32,-5.965 l -0.242,0 0,-0.344 7.887,0 0,0.344 -0.18,0 c -2.34,0 -2.398,1.679 -2.398,6.207 l 0,2.191 0.957,0 c 0.054,0 0.109,0 0.16,-0.004 2.011,-0.023 2.558,-0.441 3.715,-2.531 0.664,-1.191 1.445,-3.594 3.125,-6.207 l 4.824,0 0,0.344 -0.055,0 c -1.492,0 -2.289,1.14 -3.547,3.351 z"
         id="path2999"
         style="fill:#ffffff;fill-opacity:1;fill-rule:nonzero;stroke:none" /><path
         d="m 116.586,8.951 c 2.035,-0.063 2.746,-0.781 2.746,-2.567 l 0,-2.101 c 0,-2.32 -1.484,-3.465 -3.887,-3.465 -3.504,0 -6.027,2.965 -6.027,8.09 0,5.664 2.465,8.781 5.848,8.781 2.941,0 5.386,-1.941 5.808,-5.273 l 0.34,0 0,5.613 -0.402,0 c -0.18,-0.363 -0.418,-0.602 -0.719,-0.602 -0.961,0 -2.566,1.082 -5.027,1.082 -5.184,0 -9.11,-3.937 -9.11,-9.539 0,-5.054 3.383,-8.968 8.532,-8.968 2.085,0 3.742,0.539 5.523,1.375 0.59,0.277 1.164,0.527 1.742,0.406 -0.058,0.84 -0.058,1.5 -0.058,2.043 l 0,2.078 c 0,2.324 0.179,2.867 2.578,3.047 l 0,0.359 -7.887,0 0,-0.359 z"
         id="path3001"
         style="fill:#ffffff;fill-opacity:1;fill-rule:nonzero;stroke:none" /><path
         d="m 110.859,25.767 c 3.77,0 6.02,2.317 6.02,5.317 0,3.695 -2.734,4.523 -5.656,5.965 -2.223,1.07 -3.645,1.894 -3.645,3.695 0,1.488 1.422,2.594 3.102,2.594 2.496,0 4.316,-1.645 4.797,-4.575 l 0.328,0 0,5.2 -0.36,0 c -0.121,-0.485 -0.238,-0.786 -0.64,-0.786 -0.766,0 -1.762,0.977 -4.246,0.977 -2.801,0 -5.364,-2.098 -5.364,-4.73 0,-3.098 2.024,-4.055 5.305,-5.606 2.324,-1.082 3.742,-2.027 3.742,-3.996 0,-2 -1.347,-3.25 -3.683,-3.25 -3.047,0 -4.68,2 -5.34,5.348 l -0.328,0 0,-5.723 0.386,0 c 0.059,0.461 0.34,0.699 0.696,0.699 0.894,0 2.011,-1.129 4.886,-1.129 z"
         id="path3003"
         style="fill:#ffffff;fill-opacity:1;fill-rule:nonzero;stroke:none" /><path
         d="m 77.805,26.955 c -3.508,0 -3.746,0.265 -3.746,4.515 l 0,3.426 c 3.093,-0.062 4.105,-0.57 4.285,-3.258 l 0.359,0 0,6.989 -0.359,0 c -0.063,-2.453 -1.129,-2.911 -4.285,-2.973 l 0,7.352 2.554,0 c 3.352,0 4.887,-0.563 5.485,-3.438 l 0.359,0 -0.18,4.254 -13.535,0 0,-0.363 0.223,0 c 2.277,0 2.332,-1.618 2.332,-5.903 l 0,-5.093 c 0,-4.344 -0.055,-5.965 -2.332,-5.965 l -0.223,0 0,-0.344 14.797,0 0.18,5.316 -0.36,0 c -0.48,-3.351 -2.039,-4.515 -5.554,-4.515 z"
         id="path3005"
         style="fill:#ffffff;fill-opacity:1;fill-rule:nonzero;stroke:none" /><path
         d="m 97.449,17.724 c 2.156,-0.062 2.621,-1.441 2.621,-4.718 l 0,-7.704 -10.222,12.782 -4.879,0 0,-0.36 c 2.281,-0.062 2.566,-1.5 2.566,-4.535 l 0,-7.691 c 0,-3.285 -0.465,-4.649 -2.625,-4.707 l 0,-0.36 6.188,0 0,0.36 c -2.203,0.058 -2.621,1.422 -2.621,4.707 l 0,9.488 11.773,-14.75 0.762,0 0,12.77 c 0,3.277 0.48,4.656 2.621,4.718 l 0,0.36 -6.188,0 0,-0.36 0.004,0 z"
         id="path3007"
         style="fill:#ffffff;fill-opacity:1;fill-rule:nonzero;stroke:none" /><path
         d="m 74.285,17.724 0.231,0 c 2.265,0 2.265,-1.621 2.265,-5.918 l 0,-5.066 c 0,-4.363 0,-5.949 -2.265,-5.949 l -0.231,0 0,-0.364 7.875,0 0,0.364 -0.238,0 c -2.313,0 -2.313,1.644 -2.313,6.187 l 0,4.528 c 0,4.535 0,6.218 2.313,6.218 l 0.238,0 0,0.356 -7.875,0 0,-0.356 z"
         id="path3009"
         style="fill:#ffffff;fill-opacity:1;fill-rule:nonzero;stroke:none" /><path
         d="m 137.664,17.728 0.176,0 c 2.285,0 2.34,-1.621 2.34,-5.918 l 0,-1.668 -8.848,0 0,1.371 c 0,4.532 0.063,6.215 2.402,6.215 l 0.184,0 0,0.36 -7.828,0 0,-0.36 0.18,0 c 2.261,0 2.32,-1.621 2.32,-5.918 l 0,-5.051 c 0,-4.363 -0.059,-5.968 -2.32,-5.968 l -0.18,0 0,-0.364 7.828,0 0,0.364 -0.184,0 c -2.339,0 -2.402,1.664 -2.402,6.207 l 0,2.265 8.848,0 0,-2.504 c 0,-4.363 -0.055,-5.968 -2.34,-5.968 l -0.176,0 0,-0.364 7.824,0 0,0.364 -0.179,0 c -2.262,0 -2.325,1.605 -2.325,5.968 l 0,5.051 c 0,4.297 0.063,5.918 2.325,5.918 l 0.179,0 0,0.36 -7.824,0 0,-0.36 z"
         id="path3011"
         style="fill:#ffffff;fill-opacity:1;fill-rule:nonzero;stroke:none" /><path
         d="m 187.422,17.724 0.242,0 0,0.356 -5.105,0.008 -5.762,-13.368 -5.391,13.368 -5.582,0 0,-0.36 c 1.301,-0.058 2.02,-0.238 2.199,-0.84 0.243,-0.601 0.36,-2.511 0.36,-5.675 l 0,-5.711 c 0,-3.235 -0.352,-4.664 -2.641,-4.7 l 0,-0.378 6.516,0.007 0,0.364 c -2.578,0.117 -3,1.421 -3,4.707 l 0,10.175 6.097,-15.242 0.481,0 6.508,15.043 0,-8.523 c 0,-4.5 -0.016,-6.16 -2.567,-6.16 l 0,-0.36 7.887,-0.008 0,0.364 -0.242,0 c -2.305,0 -2.305,1.664 -2.305,6.203 l 0,4.512 c 0,4.535 0,6.218 2.305,6.218 z"
         id="path3013"
         style="fill:#ffffff;fill-opacity:1;fill-rule:nonzero;stroke:none" /><path
         d="m 170.461,40.912 c 0.391,0 0.508,0 0.871,-0.082 l 0,0.453 c -0.285,0.121 -0.879,0.148 -1.012,0.148 -3.351,0 -5.308,-2.3 -5.308,-5.058 0,-3.426 2.32,-5.465 5.855,-5.465 3.531,0 6.192,2.851 6.192,6.508 0,3.867 -3.012,6.777 -7.711,6.777 -7.422,0 -12.227,-5.828 -14.27,-9.324 l -3.418,6.023 c -0.297,0.532 -0.418,1.192 -0.418,1.43 0,0.781 0.543,1.078 1.863,1.137 l 0,0.363 -7.179,0 0,-0.363 c 1.367,-0.063 1.851,-1.258 2.871,-2.989 l 3.945,-6.867 0,-2.375 c 0,-3.469 -0.297,-4.73 -2.34,-4.73 l -0.238,0 0,-0.344 7.887,0 0,0.344 -0.184,0 c -2.023,0 -2.32,1.261 -2.32,4.73 l 0,2.735 c 1.812,3 6.637,9.324 13.48,9.324 3.438,0 5.661,-1.77 5.661,-5.985 0,-3.949 -1.571,-5.878 -3.821,-5.878 -2.379,0 -3.64,1.847 -3.64,4.972 0,2.887 1.746,4.516 3.234,4.516 z"
         id="path3015"
         style="fill:#ffffff;fill-opacity:1;fill-rule:nonzero;stroke:none" /><path
         d="m 25.797,26.498 c -2.203,0.058 -2.625,1.441 -2.625,4.734 l 0,9.488 11.785,-14.75 0.762,0 0,12.754 c 0,3.293 0.469,4.672 2.613,4.735 l 0,0.359 -6.187,0 0,-0.359 c 2.152,-0.063 2.628,-1.442 2.628,-4.735 l 0,-7.679 -10.211,12.773 -4.898,0 0,-0.359 c 2.277,-0.063 2.578,-1.5 2.578,-4.555 l 0,-7.672 c 0,-3.293 -0.48,-4.676 -2.637,-4.734 l 0,-0.344 6.192,0 0,0.344 z"
         id="path3017"
         style="fill:#ffffff;fill-opacity:1;fill-rule:nonzero;stroke:none" /><path
         d="m 127.863,26.498 -0.226,0 c -2.336,0 -2.336,1.679 -2.336,6.207 l 0,4.554 c 0,4.524 0,6.204 2.336,6.204 l 0.226,0 0,0.359 -7.886,0 0,-0.359 0.238,0 c 2.262,0 2.262,-1.622 2.262,-5.907 l 0,-5.093 c 0,-4.344 0,-5.965 -2.262,-5.965 l -0.238,0 0,-0.344 7.886,0 0,0.344 z"
         id="path3019"
         style="fill:#ffffff;fill-opacity:1;fill-rule:nonzero;stroke:none" /><path
         d="m 183.836,31.65 -0.176,0 c -1.98,0 -1.98,0.977 -1.98,4.402 l 0,1.442 c 2.039,-0.055 2.449,-0.453 2.566,-2.258 l 0.344,0 0,4.922 -0.344,0 c -0.058,-1.672 -0.465,-2.008 -2.566,-2.067 l 0,5.04 1.343,0 c 2.325,0 3.297,-0.301 3.766,-2.274 l 0.344,0 -0.117,2.961 -9.2,0 0,-0.41 0.118,0 c 1.613,0 1.671,-0.988 1.671,-4.063 l 0,-3.699 c 0,-3.019 -0.058,-3.996 -1.671,-3.996 l -0.118,0 0,-0.453 6.02,0 0,0.453 z"
         id="path3021"
         style="fill:#ffffff;fill-opacity:1;fill-rule:nonzero;stroke:none" /><path
         d="m 52.492,40.404 5.621,-14.617 0.528,0 5.015,12.836 c 1.141,2.914 2.016,4.535 3.938,4.832 l 0,0.363 -6.289,0 0,-0.363 c 1.472,-0.059 2.074,-0.539 2.074,-1.86 0,-0.707 -0.238,-1.968 -0.883,-3.566 l -3,-7.609 -3.793,9.566 c -0.418,1.082 -0.48,1.852 -0.48,1.973 0,0.957 0.66,1.379 2.086,1.496 l 0,0.363 -7.731,0 0,-0.363 c 1.602,-0.059 2.145,-1.02 2.914,-3.051 z"
         id="path3023"
         style="fill:#ffffff;fill-opacity:1;fill-rule:nonzero;stroke:none" /><path
         d="m 134.383,43.006 1.375,0 0,-10.543 c 0,-4.344 -0.063,-5.965 -2.324,-5.965 l -0.243,0 0,-0.344 7.989,0 0,0.344 -0.18,0 c -2.262,0 -2.32,1.621 -2.32,5.965 l 0,10.543 1.3,0 c 3.165,0 3.899,-0.864 4.555,-4.325 l 0.363,0 0,5.141 -15.371,0 0,-5.141 0.36,0 c 0.664,3.461 1.398,4.325 4.5,4.325 l -0.004,0 z"
         id="path3025"
         style="fill:#ffffff;fill-opacity:1;fill-rule:nonzero;stroke:none" /><path
         d="m 12.141,43.463 c 2.195,-0.059 2.617,-1.442 2.617,-4.731 l 0,-5.699 c 0,-0.5 0.031,-1.535 -0.074,-2.125 -0.309,-2.309 -1.809,-4.039 -4.489,-4.039 -3.371,0 -4.39,1.812 -4.75,3.715 -0.148,0.777 -0.136,1.547 -0.136,2.179 l 0,4.793 c 0,4.289 0.058,5.907 2.312,5.907 l 0.242,0 0,0.363 -7.863,0 0,-0.363 0.168,0 c 2.328,0 2.387,-1.68 2.387,-6.204 l 0,-4.554 c 0,-2.492 0.429,-3.848 1.441,-4.977 1.137,-1.262 3.309,-1.992 5.188,-1.992 4.632,0 6.23,2.578 6.504,5.16 0.082,0.723 0.062,1.602 0.062,2.254 l 0,5.582 c 0,3.289 0.48,4.672 2.633,4.731 l 0,0.363 -6.242,0 0,-0.363 z"
         id="path3027"
         style="fill:#ffffff;fill-opacity:1;fill-rule:nonzero;stroke:none" /><path
         d="m 40.422,43.463 0.238,0 c 2.274,0 2.274,-1.622 2.274,-5.907 l 0,-5.093 c 0,-4.344 0,-5.965 -2.274,-5.965 l -0.238,0 0,-0.344 7.902,0 0,0.344 -0.238,0 c -2.344,0 -2.344,1.679 -2.344,6.207 l 0,4.551 c 0,4.527 0,6.207 2.344,6.207 l 0.238,0 0,0.363 -7.902,0 0,-0.363 z"
         id="path3029"
         style="fill:#ffffff;fill-opacity:1;fill-rule:nonzero;stroke:none" /><path
         d="m 7.949,1.24 c -2.375,0 -2.617,0.789 -2.617,4.133 l 0,3.804 2.379,0 C 10.641,9.177 12.5,8.115 12.5,5.252 12.5,2.451 10.938,1.24 7.949,1.24 z M 6.637,17.275 c 2.871,0 4.301,-1.043 4.301,-3.598 0,-2.64 -1.481,-3.632 -4.403,-3.679 -0.055,0 -0.906,0 -1.203,0 l 0,7.277 1.305,0 z m 3.027,-7.41 c 3.059,0.672 4.32,2.242 4.32,4.144 0,2.711 -2.281,4.086 -5.714,4.086 l -8.243,0 0,-0.363 0.219,0 c 2.277,0 2.336,-1.617 2.336,-5.914 l 0,-5.062 C 2.582,2.388 2.523,0.787 0.246,0.787 l -0.219,0 0,-0.363 8.043,0 c 1.91,0 3.356,0 4.84,0.722 1.492,0.641 2.66,2.203 2.66,3.985 0,2.609 -2.039,4.675 -5.906,4.734 z"
         id="path3031"
         style="fill:#ffffff;fill-opacity:1;fill-rule:nonzero;stroke:none" /><path
         d="m 18.957,17.732 0.238,0 c 2.274,0 2.274,-1.617 2.274,-5.918 l 0,-5.058 c 0,-4.364 0,-5.969 -2.274,-5.969 l -0.238,0 0,-0.36 7.891,0 0,0.36 -0.239,0 c -2.312,0 -2.312,1.668 -2.312,6.207 l 0,4.523 c 0,4.532 0,6.215 2.312,6.215 l 0.239,0 0,0.359 -7.891,0 0,-0.359 z"
         id="path3033"
         style="fill:#ffffff;fill-opacity:1;fill-rule:nonzero;stroke:none" /><path
         d="m 60.043,4.826 -5.391,13.262 -5.59,0 0,-0.36 c 1.301,-0.062 2.024,-0.242 2.204,-0.84 0.242,-0.601 0.359,-2.511 0.359,-5.675 l 0,-5.711 c 0,-3.239 -0.352,-4.664 -2.645,-4.7 l 0,-0.378 6.516,0.007 0,0.364 c -2.57,0.121 -2.988,1.421 -2.988,4.707 l 0,10.175 6.094,-15.136 0.48,0 6.508,14.937 0,-8.523 c 0,-4.5 -0.016,-6.16 -2.57,-6.16 l 0,-0.36 7.902,-0.008 0,0.364 -0.242,0 c -2.321,0 -2.321,1.664 -2.321,6.203 l 0,4.512 c 0,4.535 0,6.214 2.321,6.214 l 0.242,0 0,0.36 -5.117,0.008 -5.762,-13.262 z"
         id="path3035"
         style="fill:#ffffff;fill-opacity:1;fill-rule:nonzero;stroke:none" /><path
         d="m 152.004,7.716 2.605,6.438 2.528,-6.438 -5.133,0 z m 9.301,-2.523 -5.383,13.324 -0.539,0 L 150.5,6.525 c -1.25,-2.937 -2.332,-5.613 -4.117,-5.734 l -0.016,-0.36 6.012,0 0.019,0.36 c -1.281,0.105 -2.238,0.761 -2.195,1.843 0.031,0.719 0.508,1.903 1.176,3.524 l 0.266,0.695 5.839,0 0.957,-2.437 c 0.379,-1 0.625,-1.723 0.602,-2.203 -0.039,-0.899 -0.746,-1.301 -2.195,-1.422 l -0.012,-0.36 7.828,0 0.016,0.36 c -1.672,0.058 -2.547,2.336 -3.375,4.402 z"
         id="path3037"
         style="fill:#ffffff;fill-opacity:1;fill-rule:nonzero;stroke:none" /></g></g></svg>