<?xml version="1.0" encoding="UTF-8" standalone="no"?>
<!-- Created with Inkscape (http://www.inkscape.org/) -->

<svg
   xmlns:dc="http://purl.org/dc/elements/1.1/"
   xmlns:cc="http://creativecommons.org/ns#"
   xmlns:rdf="http://www.w3.org/1999/02/22-rdf-syntax-ns#"
   xmlns:svg="http://www.w3.org/2000/svg"
   xmlns="http://www.w3.org/2000/svg"
   xmlns:sodipodi="http://sodipodi.sourceforge.net/DTD/sodipodi-0.dtd"
   xmlns:inkscape="http://www.inkscape.org/namespaces/inkscape"
   version="1.0"
   width="422.90067"
   height="273.85385"
   id="svg2"
   inkscape:version="0.48.2 r9819"
   sodipodi:docname="Sicily-glyph.svg"
   inkscape:export-filename="/Users/Antonio/Sicily.png"
   inkscape:export-xdpi="90"
   inkscape:export-ydpi="90">
  <metadata
     id="metadata4453">
    <rdf:RDF>
      <cc:Work
         rdf:about="">
        <dc:format>image/svg+xml</dc:format>
        <dc:type
           rdf:resource="http://purl.org/dc/dcmitype/StillImage" />
        <dc:title></dc:title>
      </cc:Work>
    </rdf:RDF>
  </metadata>
  <sodipodi:namedview
     pagecolor="#ffffff"
     bordercolor="#666666"
     borderopacity="1"
     objecttolerance="10"
     gridtolerance="10"
     guidetolerance="10"
     inkscape:pageopacity="0"
     inkscape:pageshadow="2"
     inkscape:window-width="1280"
     inkscape:window-height="752"
     id="namedview4451"
     showgrid="false"
     inkscape:zoom="0.15451389"
     inkscape:cx="64.684493"
     inkscape:cy="160.2002"
     inkscape:window-x="0"
     inkscape:window-y="0"
     inkscape:window-maximized="1"
     inkscape:current-layer="svg2"
     fit-margin-top="0"
     fit-margin-left="0"
     fit-margin-right="0"
     fit-margin-bottom="0" />
  <defs
     id="defs5">
    <inkscape:perspective
       sodipodi:type="inkscape:persp3d"
       inkscape:vp_x="0 : 750 : 1"
       inkscape:vp_y="0 : 1000 : 0"
       inkscape:vp_z="1200 : 750 : 1"
       inkscape:persp3d-origin="600 : 500 : 1"
       id="perspective4455" />
  </defs>
  <path
     d="m 334.71047,26.601864 c -0.6619,-0.33093 -1.1185,-0.80272 -1.8947,-1.57892 -0.7683,-0.76824 -2.3046,-1.67297 -3.1577,-2.52625 -0.2921,-0.29196 -1.8067,-2.3902 -2.5263,-2.21038 -1.3553,0.33891 -2.4832,0.27283 -3.4735,1.26305 -0.6509,0.65101 -1.5462,1.98188 -3.1577,1.57893 -1.4106,-0.35268 -2.645,-1.04586 -4.105,-0.31574 -1.0808,0.54032 -1.7454,1.18829 -3.1578,1.89466 -1.5964,0.79808 -1.5966,0.94733 -3.7893,0.94733 -1.455,0 -3.0347,-0.50844 -3.7893,-1.2632 -1.7725,-1.77236 -1.4533,-0.44135 -2.5262,0.6316 -0.8132,0.81315 -1.8771,0.92993 -2.8421,1.89465 -0.7292,0.7294 -1.8672,1.52401 -2.5262,2.84198 -0.1043,0.20734 -1.4199,3.07831 -1.5787,3.1577 -1.2762,0.63798 -2.6892,1.28305 -3.1578,3.15771 -0.3423,1.36912 -0.6955,2.2424 -1.8946,2.84213 -0.8561,0.42787 -2.7065,1.06005 -4.4209,0.63144 -1.2995,-0.32484 -2.8283,-0.65869 -3.4736,0.6316 -0.9253,1.85076 -2.2442,0.34949 -3.4734,1.57879 -0.7773,0.77721 -2.0337,1.13265 -2.842,2.21052 -0.6232,0.83083 -1.3297,2.57595 -3.1577,2.21038 -1.8133,-0.36267 -3.6709,-0.42425 -5.3683,0 -2.3555,0.58886 -1.7462,-0.9892 -2.8419,-1.26305 -2.0723,-0.51815 -2.1019,-0.10577 -3.7893,0.31573 -2.0747,0.51872 -1.5126,0.56524 -2.842,1.89465 -0.9886,0.98862 -1.3623,1.26306 -3.4735,1.26306 -1.1768,0 -2.2967,0.63159 -3.4735,0.63159 -2.1559,0 -2.7769,0.99746 -4.105,1.26305 -1.5891,0.3179 -4.24,0.31587 -6.3156,0.31587 -1.7551,0 -4.0789,0.3353 -5.3681,-0.63159 -2.2448,-1.68369 -2.2279,-0.6316 -4.1052,-0.6316 -1.4773,0 -4.7791,1.11757 -4.4207,-0.31573 0.054,-0.2156 0.428,-4.5332 -1.2633,-2.84198 -0.6604,0.66058 -1.4057,1.96594 -2.526,2.52625 -1.7924,0.89603 -2.7976,-0.16909 -4.7367,0.31573 -1.4416,0.3605 -3.2398,0.11737 -4.7366,-0.63159 -0.9502,-0.47512 -1.9532,-1.06456 -2.5262,-2.21039 -0.5092,-1.01832 -1.0895,-3.64702 -1.8947,-2.84198 -0.7455,0.74549 -2.7286,0.83416 -3.4735,1.57893 -1.3737,1.37361 -2.0072,1.26305 -4.7366,1.26305 -2.1005,0 -2.5081,0.30675 -3.7892,0.94733 -1.2159,0.60784 -2.5736,0.99456 -3.4737,1.89465 -0.763,0.76317 -1.9925,1.36115 -2.8419,2.21038 -1.3612,1.36115 -1.654,2.09012 -3.1578,2.84198 -1.2782,0.63913 -2.5077,1.26319 -4.4207,1.26319 -1.955,0 -2.5664,0.24677 -4.1051,0.63146 -1.1869,0.29674 -2.8074,0.31588 -4.4209,0.31588 -1.8184,0 -3.389,-0.29472 -4.7366,-0.6316 -1.5792,-0.39485 -1.6603,-1.91509 -2.8419,-2.21053 -0.6896,-0.17228 -3.5103,0.1391 -4.421,-0.31572 -1.1058,-0.55293 -2.4784,-1.64587 -3.4733,-1.89466 -1.5654,-0.39122 -2.5259,-0.63131 -3.7894,-1.26305 -1.3114,-0.65566 -1.5898,-1.66601 -3.1578,-2.84198 -0.9685,-0.72637 -2.853,-1.27422 -4.105,-2.52625 -0.6815,-0.68145 -1.8949,-1.26363 -2.2104,-2.52611 -0.4234,-1.69354 0.5953,-2.06606 0.9473,-3.47358 0.1188,-0.47236 1.2068,-3.34375 0.3157,-3.78931 -1.2125,-0.60623 -1.3289,-1.64485 -2.2104,-2.5261 -0.4696,-0.46961 -2.4148,-1.80178 -3.1576,-0.31587 -0.5771,1.1538 -0.9985,2.23602 -2.2106,2.84197 -1.6812,0.84069 -2.1742,-0.16692 -4.105,0.31574 -1.1028,0.27573 -3.008,0.35731 -4.1051,0.6316 -1.4909,0.37281 -2.3608,0.16546 -3.4735,-0.94734 -0.849,-0.84893 -2.3182,-1.16292 -2.842,-2.21037 -0.3069,-0.61393 -1.8228,-2.18212 -1.5787,-3.15771 0.2654,-1.06193 0.6734,-2.98992 0.3157,-4.4209 -0.2529,-1.01137 -0.6399,-2.87545 -0.9474,-4.10503 -0.5289,-2.11533 -1.6442,-0.69695 -2.842,-1.89465 -0.423,-0.4231 -1.1833,-2.6642 -1.8946,-2.84199 -1.6035,-0.40092 -2.1269,-2.03172 -2.842,-2.21038 -1.1649,-0.29123 -2.3953,-0.26182 -3.1577,1.26306 -0.1736,0.34703 -1.1132,3.58992 -1.5789,3.47343 -0.5906,-0.1475 -3.4,-1.72571 -3.4735,-1.57878 -0.034,0.0667 -1.0636,3.42359 -1.2631,3.47358 -1.4193,0.3547 -2.1521,0.91806 -3.4735,1.57878 -1.0606,0.53031 -2.2659,0.63159 -4.105201,0.63159 -2.0412,0 -2.9357,-1.04976 -3.7892,-1.26319 -1.1898,-0.29732 -2.4315,-0.74201 -3.4735,-1.26305 -1.6599,-0.82997 -1.4509,-0.11157 -3.1577,0.31587 -1.3232,0.33065 -1.9248,1.1425 -1.5789,2.52611 0.5547,2.2195 0.5343,1.99796 -1.579,2.52625 -1.0862,0.27153 -2.2104,1.20364 -2.2104,2.5261 0,2.4328 0.8008,1.91726 1.579,3.47359 0.5624,1.12496 1.2631,1.74613 1.2631,3.47343 0,1.11525 -0.4475,3.38156 -1.2631,3.78945 -0.8815,0.44062 -2.1939,0.62319 -3.4736,1.26304 -1.4764,0.73825 -1.2785,1.90234 -2.5261,2.52611 -0.6136,0.3069 -3.5381,0.38021 -4.1051,0.94733 -0.9712,0.97123 -1.1904,1.48185 -2.8421,1.89465 -0.9635,0.24097 -2.7299,1.0773 -3.4733,1.2632 -1.3034,0.32573 -2.2065,0.31573 -3.7894,0.31573 -1.4993,0 -3.4218,0.20647 -3.7893,-1.26306 -0.4454,-1.78177 -0.6723,-1.75714 -2.2104,-2.52625 -1.1683,-0.58407 -2.2002,-0.94226 -3.4735,-1.57892 -0.619,-0.30935 -2.5589,-1.07802 -2.8421,-2.21039 -0.3629,-1.45199 -1.9407,-1.67093 -2.5262,-2.84197 -0.4584,-0.91704 -1.6973,-2.05186 -1.263,-3.78931 0.4567,-1.82669 -0.6316,-1.82959 -0.6316,-3.7893 0,-2.57725 -1.43,-1.29928 -1.8947,-3.15771 -0.3105,-1.24233 1.656,-3.02092 0.6316,-3.7893 -2.2376,-1.67818 -1.2621,0.31558 -2.5262,0.63159 -1.8224,0.45556 -2.0431,0.3537 -2.5261,-1.57892 -0.1595,-0.63754 -1.1789,-3.55776 -2.842,-1.89465 -0.5264,0.52641 -1.7692,2.33586 -0.6316,3.47357 1.0152,1.01529 1.1871,1.81874 2.2105,2.84199 0.4642,0.46424 2.0192,2.08562 0.9473,3.1577 -0.7779,0.7778 -1.7497,1.92045 -2.2105,2.84199 -0.1362,0.27196 -1.3778,2.97122 -1.8946,2.84197 -0.7696,-0.19242 -2.972,-1.6253 -3.1578,-1.57893 -1.5084,0.37717 -2.6515,0.4457 -2.2103,2.21039 0.539,2.15647 0.2622,2.26398 -0.9473,3.47357 -0.6487,0.6487 -1.8041,1.89466 -3.4737,1.89466 -1.8149,0 -2.0034,1.3665 -3.4733,0.6316 -1.3182,-0.65913 -3.379,1.04193 -4.4209,0 -0.1867,-0.74622 -2.9089,2.27717 -3.1578,2.5261 -1.508,1.50821 -0.9705,2.37991 -2.5262,3.15785 -1.0097,0.50467 -1.7973,1.3723 -2.842,1.89465 -0.8679,0.43397 -1.9738998,0.1975 -2.8419998,0.63146 -1.0183,0.50916 2.0369998,1.08961 2.8419998,1.89465 0.8491,0.84909 -0.8125,3.51966 -0.9474,3.78931 -0.6932998,1.38665 -0.8419998,1.78959 -1.2629998,3.47357 -0.3315,1.32609 -1.0131,2.27616 -1.8946,3.15771 -0.7579,0.7578 -1.2797,1.96072 -1.579,3.1577 -0.4856,1.94276 -0.5586,2.03433 -2.5261,2.52625 -1.7101,0.42759 -1.92869997,1.33101 -2.52619997,2.52626 -0.8032,1.6063 0.1434,2.35441 0.94729997,3.15771 0.9569,0.95688 1.5735,1.55762 1.8946,2.84197 0.3776,1.51054 0.3619,2.52611 2.2104,2.52611 1.579,0 0,3.15784 0,4.73663 0,0.93544 -2.4852,1.2632 -3.4734,1.2632 -2.19939997,0 -1.57889997,1.18452 -1.57889997,3.1577 0,1.98608 1.98939997,1.57893 3.78929997,1.57893 0.6459,0 1.6057,2.58 1.8947,3.1577 0.6394,1.27885 0.6316,2.34094 0.6316,4.10504 0,1.69426 -0.3732,2.6129 0,4.105026 0.3514,1.40621 1.1457,2.0933 1.8944,2.84198 0.9649,0.96485 1.3973,1.7131 2.2105998,2.52625 0.8166,0.81663 1.4262,1.66035 2.5261,2.21038 1.435,0.71752 2.05,0.98746 3.4735,0.6316 1.7075,-0.42686 3.6269,0.27516 5.0524,0.63159 1.4871,0.37167 2.1382,0.97428 2.5263,2.52612 0.3494,1.39838 1.3053,1.97926 1.8946,3.15769 0.4954,0.99081 0.4507,3.3823 0.6315,4.10519 0.2872,1.1493 1.9037,2.21486 3.1578,2.84197 0.9279,0.46396 2.1684,1.81061 2.5262,2.52611 0.5744,1.14902 1.9869,1.2632 3.4735,1.2632 0.3973,0 1.0481,-1.89465 2.842,-1.89465 0.9222,0 2.4064,-1.45925 2.842,-1.89466 0.8914,-0.89139 2.8301,-0.94732 4.1049,-0.94732 1.2258,0 2.9809,0.31572 4.421,0.31572 1.4317,0 3.3998,-0.31572 5.0524,-0.31572 1.9592,0 2.8574,-0.0159 3.7892,-0.94733 0.7328,-0.73274 2.5027,1.41505 3.1578,1.57878 1.3769,0.34427 3.3088,0 4.7366,0 1.8177,0 2.6947,0.65305 3.1577,1.57893 0.5077,1.01528 2.2227,0.97167 2.842,2.21038 0.5604,1.1209 1.2789,1.95739 1.5789,3.15771 0.2582,1.03295 1.2225,2.48567 1.8946,3.15785 1.1527,1.15264 0.2103,1.9997 1.8947,2.84197 1.2983,0.64913 2.7818,0.18793 3.7893,-0.31587 1.434,-0.71694 1.1025,-1.57878 3.1577,-1.57878 1.1864,0 2.5482,1.62268 2.842,2.21038 0.4166,0.83314 3.1214,0.48279 3.7893,0.31573 2.1633,-0.54075 1.4437,0.51886 3.1577,0.94732 1.3356,0.33399 3.4533,0.0739 4.4209,0.31588 1.013701,0.25341 1.075301,2.72229 1.263101,3.47343 0.1968,0.78692 2.8615,0.47858 3.4736,0.6316 1.5187,0.37977 -0.293,1.11656 1.263,1.89465 0.6017,0.3008 1.4501,2.95847 1.5789,3.47343 0.2377,0.95109 1.0069,2.76489 1.263,3.7893 0.2812,1.12453 1.4765,1.80062 1.8947,3.47359 0.2553,1.02121 3.0618,0.20589 3.4736,0 0.8553,-0.42773 2.1945,1.86277 2.5261,2.52625 0.6155,1.23088 1.533,1.56733 2.842,1.89464 2.0094,0.50236 2.6507,-0.19126 3.7893,0.94733 0.6316,0.63146 1.2631,1.26306 1.8947,1.89466 1.4132,1.41316 2.1946,1.87885 3.1576,2.84183 1.5108,1.51082 2.2897,0.63247 2.8421,2.84212 0.3599,1.4394 1.8376,1.35087 2.2104,2.84183 0.1696,0.67812 3.7728,0.31588 4.4208,0.31588 1.5789,0 3.1577,0 4.7367,0 2.4501,0 1.6529,0.80794 3.4735,1.26305 1.169,0.29225 0.9297,-2.22806 2.842,-0.31573 0.9944,0.99442 0.9527,1.73947 2.5261,2.52611 1.1215,0.56074 3.0476,1.78439 3.7893,2.52625 0.9649,0.96472 1.0815,2.02883 1.8947,2.84198 0.8671,0.86706 2.2462,1.12309 3.1577,1.57878 0.6209,0.31052 0.8266,3.30623 0.9473,3.78945 0.3998,1.59906 1.4298,1.85727 2.8419,2.21038 1.582,0.39542 3.0698,0.74534 4.1053,1.26305 1.3149,0.65754 1.5661,1.23785 2.2103,2.52625 0.4456,0.89126 2.6687,1.72137 3.1577,2.21038 1.1586,1.15859 0.494,1.89466 3.1577,1.89466 1.2951,0 3.364,-0.41875 4.421,-0.94733 1.4527,-0.72636 3.6861,0.42208 4.7366,0.94733 1.0328,0.51641 1.5398,1.85553 2.2104,2.52625 0.8885,0.88835 1.6318,2.47496 1.8946,3.78931 0.2889,1.44446 2.8882,1.27232 4.4209,1.57877 0.4255,0.0855 0.842,0.21054 1.263,0.31588 1.0485,0.26211 2.9887,0 4.4209,0 0.942,0 2.4129,-1.2064 3.1578,-1.57893 1.4857,-0.74288 3.335,-0.6316 5.368,-0.6316 1.6478,0 3.2607,-0.0536 4.7367,0.31588 0.2043,0.0507 0.4211,0 0.6316,0 2.0432,0 4.2121,0.31572 6.3155,0.31572 1.9151,0 3.0924,0.53626 4.7366,0.94733 2.0318,0.50785 1.4578,1.89465 3.4735,1.89465 1.4953,0 2.8248,0.15359 4.7366,0.63145 1.1046,0.27617 2.163,1.23944 3.4736,1.89466 1.8699,0.93501 2.4204,1.36737 3.1577,2.84197 0.5344,1.0689 2.1827,1.96667 3.1578,2.21053 1.7583,0.43947 3.4961,1.91146 4.7366,2.84198 0.8328,0.62465 3.2298,2.59812 4.105,3.47343 0.7884,0.78838 1.1565,1.36578 1.5789,2.21053 1.3245,1.32448 2.2777,2.34469 2.842,3.47343 0.5003,1.00079 1.735,1.41925 2.5263,2.21038 0.7582,0.75824 1.2793,1.95986 1.5787,3.15785 0.3698,1.4788 0.3159,1.73469 0.3159,3.78931 0,0.47511 2.2775,1.5314 2.5261,2.5261 0.3002,1.20074 2.101,1.14105 2.5263,2.84198 0.5536,2.21458 -0.024,2.50118 1.5788,4.10503 0.3325,0.33253 -0.212,3.57283 0,4.4209 0.2196,0.87836 1.6881,2.1133 2.2104,3.15769 0.5385,1.0769 1.6171,1.33957 2.2104,2.52625 0.5896,1.17918 1.5138,1.5626 2.842,1.89467 1.5058,0.37642 2.3275,0.89762 3.7893,1.26308 0.9399,0.23501 3.3976,-0.63158 5.0524,-0.63158 2.2538,0 2.227,0.48199 3.7893,1.26316 1.4833,0.74155 2.4594,1.16738 4.105,1.57896 2.0227,0.50552 1.8331,1.70578 3.4736,2.52608 0.5259,0.26284 1.5833,2.53511 1.8947,3.15767 0.6241,1.24858 3.2087,1.25043 4.4207,0.94737 2.0799,-0.51994 2.5932,0.36394 3.1579,-1.89466 0.3929,-1.57196 1.1067,1.58511 1.263,2.21054 0.3227,1.29082 1.9206,1.26957 3.1577,1.57879 1.2625,0.31571 3.3597,-0.9978 4.4209,-1.26308 1.5704,-0.39253 1.0205,-1.57896 3.4735,-1.57896 2.2459,0 2.1947,0.96331 3.7892,-0.63142 1.1998,-1.19975 1.9746,-1.26325 4.1052,-1.26325 0.2106,0 2.902,1.95471 3.1577,2.21054 0.92,0.91997 1.6346,1.90858 2.842,2.21038 1.0269,0.25676 2.1713,1.71716 3.1577,2.21037 1.6752,0.83767 1.9439,1.08069 3.4736,0.31588 1.2703,-0.63521 -0.6351,-3.00074 2.5261,-2.21046 1.1808,0.29513 2.0594,-0.038 3.4736,0.31587 0.2743,0.0683 1.5083,2.77138 1.8946,3.15767 1.18,1.17985 1.1689,1.83378 1.579,3.47345 0.3907,1.56353 1.888,1.2614 3.1576,1.57888 0.1609,0.0405 2.0921,-2.02284 2.8421,-2.21037 1.4735,-0.36841 2.1705,-1.08525 3.7892,-1.89467 1.032,-0.51598 0.6315,-2.64346 0.6315,-4.10496 0,-1.20017 -2.5508,-1.0462 -2.8419,-2.21054 -0.2511,-1.00412 0.7784,-1.87282 1.2631,-2.84204 0.5922,-1.18449 -1.2881,-2.57591 -1.5789,-3.15766 -0.7121,-1.42414 -0.7246,-1.98785 -1.8947,-3.15775 -1.3297,-1.3297 -1.263,-1.59726 -1.263,-3.78925 0,-2.0478 -0.068,-2.80809 1.263,-3.47359 0.7485,-0.37413 0.3158,-3.61934 0.3158,-4.42076 0,-1.25682 1.7048,-2.00507 2.5263,-2.21053 1.295,-0.32369 1.8235,-2.06794 2.2103,-2.84197 0.6174,-1.23466 1.1224,-1.64718 1.5789,-3.47344 0.4104,-1.64122 0.6167,-2.46684 0.9474,-3.7893 0.2816,-1.12656 1.5171,-2.46453 2.2104,-3.15771 1.0115,-1.01152 1.5441,-1.50923 2.2105,-2.84198 0.6245,-1.249 2.0049,-2.10779 2.842,-2.52625 1.354,-0.6771 1.8026,-1.04918 3.4734,-0.6316 2.1508,0.53771 2.842,0.0391 2.842,-1.8945 0,-1.80902 0.9387,-2.83343 1.8946,-3.78931 1.1629,-1.16293 1.2696,-1.57241 2.842,0 1.2869,1.28696 0.8543,1.89465 3.1577,1.89465 1.7536,0 1.2759,-1.94623 1.5789,-3.15785 0.1261,-0.5067 -1.9003,-2.53741 -2.2104,-3.15771 -0.902,-1.80394 -1.912,-1.57023 -3.1578,-0.94732 -1.491,0.74549 -2.1121,0.72984 -3.1577,-0.31573 -1.3834,-1.38331 0.1501,-2.56378 1.263,-2.84198 1.3834,-0.34586 0.3669,2.11867 2.5263,1.57878 0.094,-0.0232 -0.6316,-3.42416 -0.6316,-4.10503 0,-1.74483 2.5477,0.35877 1.2632,-2.21038 -0.6787,-1.35738 -1.1105,-1.28392 -1.5789,-3.1577 -0.2696,-1.07788 -2.535,-1.1864 -2.842,-1.2632 -0.9276,-0.23184 -1.5151,1.01108 -3.1577,-0.6316 -1.3228,-1.3226 -1.8015,-1.07672 -2.5263,-2.5261 -0.3576,-0.71535 -1.9491,-2.07259 -2.5261,-2.84199 -0.8305,-1.10728 -1.0399,-2.07968 -1.5789,-3.1577 -0.7798,-1.5598 -1.197,-1.94609 -1.579,-3.47358 -0.3893,-1.55719 -0.2754,-2.60681 0.3159,-3.7893 0.5131,-1.02615 0.9474,-1.64166 0.9474,-3.78931 0,-1.35839 2.2142,-0.93182 2.5261,0.31588 0.3461,1.38462 0.057,3.3862 0.3159,4.42075 0.3318,1.32739 1.8557,-1.41896 1.5787,-2.52625 -0.6154,-2.46133 1.0688,-0.36427 1.5789,0.31587 0.6376,0.85011 1.5788,-2.76865 1.5788,-3.47357 0,-1.60588 -1.4802,-2.31891 -2.5261,-2.84199 -1.5166,-0.75823 -1.7784,-1.11366 -2.2103,-2.84197 -0.036,-0.14489 -0.2106,-0.21039 -0.3159,-0.31573 -0.1058,-0.10577 2.1291,2.71534 1.2631,0.6316 -0.866,-2.08374 -1.3331,-2.49119 -3.1578,-1.57893 -1.5365,0.76824 -1.7101,1.44765 -3.1577,0 -1.1674,-1.16741 -1.3094,-1.26305 -3.4736,-1.26305 -2.0753,0 0.5858,-3.30419 -2.5261,-2.52625 -2.0925,0.52322 -2.7915,0.36615 -3.7893,-0.63145 -0.4746,-0.47468 -0.2306,-3.93478 -0.6316,-4.73663 -0.4764,-0.95313 -0.3157,-3.98463 -0.3157,-5.05251 0,-1.52792 0.054,-3.88899 -0.3157,-5.36808 0,-3.62586 0.064,-6.35569 0.3157,-9.78899 0,-1.23857 0.6316,-2.71143 0.6316,-4.10518 0,-1.97289 0.366,-2.62666 0.9472,-3.78931 0.5958,-1.19133 1.8409,-1.84075 2.5263,-2.5261 1.0855,-1.08556 2.0628,-1.747 2.8419,-2.52625 1.2293,-1.2293 1.723,-1.23553 2.5263,-2.84198 0.6936,-1.38737 0.5702,-2.2808 0.9473,-3.7893 0.5212,-2.08505 1.263,-1.69601 1.263,-4.10504 0,-1.50836 0.058,-3.39026 0.3157,-4.4209 0.4345,-1.7373 1.579,-1.18771 1.579,-3.15771 0,-1.49966 0.3651,-2.64434 0,-4.10503 -0.4638,-1.85538 1.2142,-2.5929 2.2104,-2.84198 1.4827,-0.37064 0.3573,-3.074816 0,-3.789306 -0.5709,-1.14191 -0.9597,-2.25978 -1.2631,-3.47357 -0.4924,-1.96942 -0.1518,-2.13446 1.2631,-2.84183 1.0172,-0.50859 1.5667,-2.19836 2.2105,-2.84198 1.0927,-1.0928 2.0113,-1.69557 2.8418,-2.52625 0.8077,-0.80751 1.6685,-1.44214 2.2105,-2.52626 0.7839,-1.56791 1.2631,-1.68556 1.2631,-3.7893 0,-1.55371 1.7211,-1.61442 2.842,-1.89465 1.3866,-0.34659 1.2631,-1.77961 1.2631,-3.47344 0,-2.05751 0.6104,-2.18922 1.5788,-3.1577 0.9289,-0.92878 2.0756,-1.44403 2.8421,-2.21053 1.0546,-1.05469 1.263,-1.20248 1.263,-3.47343 0,-1.22161 1.5789,-2.17256 1.5789,-4.10517 0,-1.26842 1.0779,-2.78722 1.5789,-3.78931 0.4958,-0.99166 1.5629,-1.87871 2.2104,-2.5261 1.0217,-1.02181 1.2191,-1.8067 1.8947,-3.15785 0.7156,-1.43129 2.053,-1.73731 2.842,-2.52611 1.0264,-1.02645 1.9119,-2.59551 2.2104,-3.78931 0.3922,-1.56878 2.0643,-3.08468 2.8419,-3.47358 0.9711,-0.4854 1.7588,-2.45032 2.5263,-3.47343 0.9266,-1.23567 1.4164,-1.56994 2.2103,-3.15785 0.9185,-1.83684 1.5097,-2.56494 1.8947,-4.10503 0.2764,-1.10599 1.5851,-1.60399 1.8947,-2.84198 0.307,-1.22842 1.9415,-2.57319 2.5261,-3.15771 l 2.5262,-6.947 c 0.2671,-0.26705 0.2715,-3.92827 0.3157,-4.10503 0.2419,-0.96733 1.4489,-1.9503 1.8947,-2.84199 0.8869,-1.77395 0.6404,-1.7412 2.2105,-2.5262497 1.064,-0.53205 2.9231,-0.31573 4.4208,-0.31573 2.2189,0 0.2182,-2.6239 0,-2.84197 -0.5162,-0.51612 -4.9041,0 -5.684,0 -0.5489,0 -2.0658,-2.23705 -2.2104,-2.52625 -0.7501,-1.5004 -2.4456,-2.32804 -3.4735,-2.84198 -1.6411,-0.82055003 -1.1597,-1.47272003 -2.842,-0.63160003 -1.3966,0.69839003 -1.6697,1.66977003 -2.5262,2.52625003 -0.9929,0.99296 -1.5421,1.56052 -2.8419,2.21038 -1.4956,0.7478 -2.7475,1.16872 -3.7893,2.21052 -0.8306,0.8304 -2.6274,1.15583 -3.4736,1.57878 -1.5197,0.75984 -1.7309,1.8537997 -3.1577,2.2105297 -1.1148,0.27863 -3.1466,1.7312 -4.105,2.21037 -1.0712,0.53554 -2.0609,1.03036 -3.1577,1.57894 -1.3316,0.66564 -2.8013,0.54234 -4.421,0.94732 -1.509,0.37716 -3.0596,0.29124 -4.4209,0.63145 -1.3769,0.34428 -3.3087,0 -4.7366,0 -1.0651,0 -0.6314,-3.24927 -0.6314,-4.10503 0,-1.68673 0.3304,-2.7837297 0,-4.1050297 -0.3552,-1.42041 -1.6801,-1.92001 -2.842,-2.21053 -2.7557,-0.68883 -1.644,1.19815 -0.9473,1.89466 1.1156,1.11555 1.5789,1.13163 1.5789,3.1578497 0,1.08975 3.2148,1.48561 0.3157,2.21037 -0.4568,0.11447 -1.1206,2.90371 -1.2631,3.47358 -0.3626,1.4504 -1.3508,1.75411 -1.8946,2.84184 -0.609,1.21785 -1.1809,2.4441 -1.8946,3.15784 -0.9692,0.96907 -1.4198,1.81511 -2.842,2.52612 -1.5402,0.77012 -1.993,1.6773 -2.842,2.52625 -0.9648,0.96471 -1.7131,1.39722 -2.5263,2.21037 -0.3917,0.39195 -3.5689,1.12904 -4.105,1.2632 -1.5515,0.38789 -3.4734,-0.15794 -4.4209,-0.6316 -1.1889,-0.5945 -1.5974,-1.65368 -1.8947,-2.84197 -0.2764,-1.10599 -3.0419,-0.6316 -4.1049,-0.6316 -1.579,0 -3.1578,0 -4.7367,0 -0.955,0 -1.2094,-0.89357 -1.5789,-1.26306"
     id="path1968"
     style="fill:#000000;fill-opacity:1;fill-rule:evenodd;stroke:none"
     sodipodi:nodetypes="csssssssssssssssssssssssssssssssssssssssssssssssssssssssssssssssssssssssssssssssssssssssssssssssssssssssssssssssscssssssssssssssssssssssssssssssssssssssssssssssssssssssssssssssssssssssssssssssssssssssssssssssssssscsssssssssssssssssssssssssssssssssssssssssssssssssssssssssssssssssssssssssssssssssssssssssccssssssssssssssssssssssssssssssssssccssssssssssssssssssssssssssssssssssssc"
     inkscape:connector-curvature="0" />
</svg>
